<?xml version="1.0" standalone="no"?>
<!DOCTYPE svg PUBLIC "-//W3C//DTD SVG 20010904//EN"
 "http://www.w3.org/TR/2001/REC-SVG-20010904/DTD/svg10.dtd">
<svg version="1.0" xmlns="http://www.w3.org/2000/svg"
 width="512.000000pt" height="512.000000pt" viewBox="0 0 512.000000 512.000000"
 preserveAspectRatio="xMidYMid meet">
<metadata>
Created by potrace 1.16, written by Peter Selinger 2001-2019
</metadata>
<g transform="translate(0.000000,512.000000) scale(0.100000,-0.100000)"
fill="#000000" stroke="none">
<path d="M2246 5089 c-10 -6 -47 -40 -81 -75 -34 -35 -70 -64 -79 -64 -9 0
-31 7 -48 16 -16 9 -74 20 -128 25 -138 14 -165 5 -247 -81 -50 -52 -93 -84
-186 -137 -150 -84 -181 -115 -207 -204 -16 -52 -29 -75 -60 -103 -22 -20 -44
-36 -49 -36 -5 0 -32 -18 -60 -40 -55 -44 -79 -84 -105 -172 -21 -75 -41 -88
-132 -88 -39 0 -92 -6 -118 -14 -56 -17 -72 -13 -91 24 -16 30 -61 48 -79 30
-7 -7 -6 -20 3 -43 8 -17 16 -48 18 -68 4 -33 -1 -43 -67 -116 -62 -71 -75
-81 -103 -79 -26 1 -32 -3 -33 -19 -1 -11 -2 -26 -3 -33 0 -8 -32 -44 -69 -80
-74 -72 -92 -113 -92 -206 0 -49 -8 -60 -70 -99 -19 -12 -48 -44 -64 -70 -25
-41 -30 -58 -29 -111 0 -34 9 -97 19 -140 14 -61 15 -81 6 -94 -112 -158 -108
-342 9 -452 26 -25 57 -53 69 -63 15 -13 19 -24 14 -35 -4 -9 -9 -70 -12 -134
-4 -106 -2 -121 19 -162 21 -43 21 -47 6 -64 -27 -29 -20 -50 22 -72 39 -19
71 -54 71 -76 0 -6 -20 -31 -45 -56 -51 -52 -53 -61 -31 -183 8 -44 19 -115
24 -157 8 -64 15 -83 43 -118 33 -41 34 -44 34 -139 0 -75 4 -103 17 -123 24
-36 74 -72 130 -93 64 -24 80 -45 90 -116 4 -34 20 -84 35 -111 44 -81 87
-105 280 -157 32 -9 54 -25 90 -67 89 -103 226 -145 361 -110 85 21 99 20 118
-8 19 -31 47 -40 199 -67 66 -11 131 -27 146 -34 39 -20 126 -90 194 -155 66
-63 103 -80 176 -80 44 0 52 -4 91 -44 35 -36 55 -46 103 -57 33 -7 89 -12
125 -12 45 1 88 -6 139 -23 44 -14 97 -24 132 -24 70 0 156 30 190 66 37 40
51 44 95 29 46 -17 183 -19 237 -4 50 14 89 51 130 124 38 70 62 85 138 85 71
0 150 23 188 56 51 43 120 164 136 238 17 82 24 92 77 100 58 9 103 39 149
100 21 28 44 57 49 64 6 6 29 12 51 12 38 0 41 2 59 46 11 25 34 62 50 82 17
20 30 41 30 48 0 6 12 21 26 35 22 21 37 24 112 27 98 4 113 12 131 71 12 43
70 108 129 145 53 33 110 104 119 149 6 29 20 46 58 75 32 24 58 54 73 85 27
57 38 155 24 216 l-11 44 54 57 c30 31 61 73 70 93 22 52 19 145 -6 213 -18
47 -20 66 -13 113 4 31 8 99 8 151 -1 129 -27 189 -113 256 -33 26 -63 54 -65
63 -3 9 -8 63 -11 121 -8 131 -19 172 -52 207 -14 16 -32 37 -39 49 -22 32
-19 113 5 159 36 67 26 129 -30 193 -27 30 -30 40 -25 71 3 20 9 69 13 108 l6
73 -42 38 c-32 30 -41 44 -41 71 0 40 -73 207 -104 239 -14 15 -40 26 -67 29
-63 8 -77 18 -84 61 -4 20 -9 50 -12 66 -7 37 -96 134 -140 152 -20 9 -71 14
-133 14 -113 0 -97 -9 -194 105 -58 67 -81 78 -197 95 -77 11 -95 11 -164 -5
-66 -16 -83 -17 -119 -6 -123 37 -147 41 -251 41 l-110 0 -90 94 c-70 73 -100
97 -131 105 -43 11 -73 39 -92 84 -14 33 -33 34 -72 6 -26 -20 -33 -21 -76
-10 -26 7 -91 16 -144 21 -65 5 -110 15 -137 29 -52 26 -112 35 -137 20z m384
-424 c11 -10 20 -27 20 -37 0 -22 -35 -93 -84 -168 -23 -34 -36 -66 -36 -87 0
-42 -32 -76 -92 -97 -26 -10 -62 -27 -80 -39 -77 -52 -128 -180 -105 -266 10
-36 8 -42 -19 -76 -69 -87 -84 -110 -105 -164 -20 -54 -20 -58 -4 -103 18 -52
11 -100 -25 -153 -25 -38 -25 -97 0 -154 26 -56 25 -100 -1 -154 -28 -57 -21
-85 35 -145 24 -26 56 -67 71 -92 15 -25 39 -58 54 -73 24 -26 25 -29 10 -55
-19 -35 -63 -41 -93 -14 -29 27 -55 39 -131 63 -51 15 -75 30 -113 69 -35 35
-57 50 -76 50 -67 0 -110 37 -136 115 -8 25 -34 60 -70 95 -63 60 -80 87 -80
122 0 49 -23 101 -67 150 -43 49 -45 53 -40 99 6 48 31 99 49 99 5 0 20 11 33
25 23 22 25 32 25 116 0 50 -5 109 -12 130 -10 35 -9 42 14 76 30 46 48 96 48
134 0 54 30 107 81 145 32 23 64 60 91 106 23 38 54 80 70 91 16 12 77 38 136
57 106 35 107 35 120 75 7 22 17 44 23 50 17 18 184 34 326 31 122 -2 145 -5
163 -21z m911 -435 c83 -51 170 -63 263 -36 67 20 74 16 106 -50 35 -71 70
-94 145 -94 35 0 71 -3 80 -6 9 -4 30 -35 46 -70 32 -67 83 -120 127 -130 45
-11 54 -23 47 -65 -5 -31 0 -52 33 -121 52 -110 56 -123 37 -138 -18 -15 -55
-9 -161 26 -87 28 -126 30 -164 8 -40 -24 -90 -11 -145 36 -57 50 -72 53 -193
48 -87 -3 -104 -7 -159 -37 -57 -31 -65 -32 -93 -21 -87 36 -268 -8 -318 -77
-19 -25 -26 -28 -114 -33 -84 -4 -99 -8 -131 -33 -21 -16 -48 -50 -61 -76 -30
-58 -41 -67 -89 -76 -44 -8 -98 -66 -178 -187 -69 -105 -75 -111 -99 -96 -30
19 -41 57 -30 103 8 33 6 52 -12 102 -20 59 -21 64 -5 100 19 42 26 153 13
195 -7 23 -4 29 23 42 42 22 63 68 69 151 6 92 12 101 67 108 76 8 108 50 144
185 15 52 39 69 116 77 97 10 112 15 151 46 20 16 45 29 56 29 10 0 36 12 58
26 31 21 55 27 121 31 73 5 86 10 123 39 22 18 45 33 50 33 6 1 40 -17 77 -39z
m-2614 -422 c4 -7 8 -58 8 -114 0 -112 7 -129 76 -197 34 -32 39 -44 39 -82 0
-24 -5 -65 -11 -92 -23 -101 35 -206 143 -261 64 -31 78 -52 94 -133 7 -40 22
-81 31 -92 31 -34 113 -67 171 -67 58 0 64 -5 126 -90 35 -49 71 -68 231 -116
77 -23 115 -28 260 -33 l170 -6 3 -27 c2 -20 -7 -38 -36 -70 -22 -24 -47 -57
-56 -75 -12 -25 -27 -35 -68 -47 -38 -11 -61 -25 -80 -50 -26 -33 -30 -34
-106 -37 -78 -4 -79 -4 -133 -53 l-54 -48 -75 6 c-64 6 -81 4 -115 -14 -52
-27 -70 -26 -156 11 -68 29 -78 31 -152 24 l-79 -7 -74 76 c-68 68 -82 77
-154 101 -43 14 -83 32 -88 38 -6 7 -16 41 -22 77 -11 58 -18 70 -64 116 -29
28 -77 64 -107 80 -64 34 -67 43 -49 164 11 72 17 89 41 111 16 15 29 32 29
38 0 7 -29 25 -64 41 -38 17 -67 36 -70 48 -4 10 0 46 9 78 8 32 15 88 15 125
0 81 10 111 55 160 31 35 49 79 69 172 4 15 34 57 67 94 33 37 69 84 80 104
27 53 76 77 96 47z m2736 -648 c31 -11 81 -20 111 -20 59 0 68 -8 56 -50 -4
-14 -3 -40 2 -57 11 -40 35 -43 68 -8 28 30 33 30 112 6 35 -11 75 -22 91 -26
32 -6 83 -55 186 -178 79 -94 111 -117 161 -117 19 0 40 -9 55 -24 23 -23 24
-31 23 -123 -2 -125 14 -179 60 -206 29 -17 33 -24 28 -49 -3 -16 -16 -44 -28
-61 -20 -28 -23 -43 -20 -108 1 -43 9 -99 17 -125 26 -87 21 -114 -42 -192
-19 -23 -39 -57 -44 -75 -5 -19 -20 -39 -39 -49 -36 -21 -66 -66 -86 -135 -11
-39 -26 -62 -57 -88 -50 -43 -89 -44 -119 -4 -19 25 -19 28 -3 59 13 25 16 52
13 111 -4 92 -18 117 -97 168 l-53 35 8 60 c13 101 7 146 -28 197 -34 50 -102
100 -161 119 -45 14 -44 11 -57 119 -16 137 -62 184 -197 199 -64 7 -68 9 -76
37 -31 102 -47 116 -162 140 -50 10 -97 27 -126 46 -51 32 -137 51 -193 42
-21 -3 -51 1 -74 10 -31 13 -47 14 -75 5 -43 -13 -64 -6 -78 26 -17 37 38 100
116 136 33 15 77 38 97 52 21 15 65 31 100 37 34 6 85 22 113 35 34 17 73 26
122 29 46 3 85 11 110 25 49 26 94 27 166 2z m-737 -657 c13 15 27 27 30 27 2
0 29 -17 60 -37 58 -39 84 -75 84 -118 0 -31 25 -33 55 -5 l22 21 24 -20 c13
-11 59 -32 101 -46 l77 -26 11 -51 c14 -67 43 -114 91 -144 55 -34 67 -58 78
-157 10 -88 35 -149 66 -160 7 -3 21 -17 30 -31 16 -24 16 -28 -14 -87 -26
-52 -31 -74 -31 -133 0 -43 6 -81 15 -96 41 -71 41 -68 7 -113 -121 -163 -116
-152 -122 -267 -4 -58 -10 -112 -14 -121 -8 -19 -48 -39 -77 -39 -55 0 -147
-93 -171 -171 -16 -56 -45 -75 -123 -82 -77 -7 -144 -40 -217 -105 -45 -41
-50 -43 -80 -33 -67 24 -175 9 -226 -30 -21 -16 -26 -17 -65 -3 -29 11 -62 14
-107 10 -65 -6 -77 -3 -205 47 -22 9 -57 19 -78 22 -38 6 -77 35 -77 56 0 8
16 10 53 5 28 -3 83 -9 120 -13 l69 -6 72 75 c86 86 102 114 115 197 5 34 12
65 16 70 3 5 38 27 78 49 117 65 172 136 202 263 12 52 21 69 59 104 76 69
120 214 96 315 -14 58 -9 80 19 80 39 0 51 26 51 115 0 73 -4 90 -30 140 -26
50 -30 67 -30 139 0 83 -20 139 -54 152 -27 10 -46 54 -61 136 -20 115 -20
117 20 78 l35 -34 26 27z m-350 -175 c4 -7 11 -60 15 -118 4 -65 13 -118 24
-141 17 -35 17 -35 -19 -100 -40 -72 -45 -115 -21 -173 13 -32 14 -40 1 -64
-8 -15 -23 -35 -34 -45 -22 -20 -35 -49 -52 -114 -14 -54 -53 -100 -101 -120
-54 -21 -95 -71 -108 -133 -6 -28 -16 -60 -21 -71 -17 -31 -64 -49 -133 -49
-63 0 -64 -1 -127 -55 -102 -88 -130 -98 -305 -107 l-150 -7 -22 25 c-17 18
-23 37 -23 70 0 31 -5 46 -15 50 -29 12 -45 -16 -45 -77 0 -75 -17 -96 -61
-73 -17 8 -65 24 -107 35 -81 20 -122 50 -122 91 0 18 -4 20 -36 15 -33 -6
-42 -2 -87 39 -27 24 -61 47 -76 50 -96 22 -100 24 -128 72 -15 26 -58 80 -96
121 -74 81 -84 103 -68 144 8 19 8 42 1 73 -14 60 -1 84 46 84 19 0 49 -7 66
-16 41 -21 80 -20 171 5 l76 21 48 -51 c61 -66 82 -75 187 -89 112 -15 141 -9
192 41 l41 40 60 -15 c64 -17 132 -20 197 -9 30 5 51 18 87 56 l47 49 88 10
c49 5 104 16 121 25 40 19 93 77 93 102 0 23 27 48 64 57 46 11 114 85 121
131 12 74 15 81 44 93 17 6 33 10 38 7 19 -11 52 14 63 50 23 70 49 99 66 71z"/>
</g>
</svg>
