<svg width="46" height="47" viewBox="0 0 46 47" fill="none" xmlns="http://www.w3.org/2000/svg">
<path d="M19.1496 27.0848C19.1496 29.0665 17.7121 29.6928 15.946 29.6928H11.3152V24.2612H16.0384C17.9482 24.2714 19.1496 25.062 19.1496 27.0848V27.0848ZM18.3589 18.6344C18.3589 16.817 16.9522 16.3857 15.3915 16.3857H11.3254V20.9857H15.7098C17.2603 20.9857 18.3589 20.308 18.3589 18.6344V18.6344ZM31.9433 21.0165C30.0643 21.0165 28.8116 22.187 28.6884 24.0661H35.075C34.9004 22.1665 33.9147 21.0165 31.9433 21.0165ZM46 5.21428V41.3571C46 44.0781 43.7924 46.2857 41.0714 46.2857H4.92857C2.20759 46.2857 0 44.0781 0 41.3571V5.21428C0 2.49329 2.20759 0.285706 4.92857 0.285706H41.0714C43.7924 0.285706 46 2.49329 46 5.21428ZM27.8978 15.9955H35.8862V14.0549H27.8978V15.9955ZM23.4826 27.321C23.4826 24.8464 22.3121 22.7107 19.8888 22.0228C21.6549 21.1808 22.579 20.2053 22.579 18.2237C22.579 14.3013 19.6527 13.3464 16.2746 13.3464H6.98214V33.0607H16.5415C20.125 33.0402 23.4826 31.3254 23.4826 27.321V27.321ZM39.0179 25.8013C39.0179 21.5812 36.5433 18.0594 32.0768 18.0594C27.7232 18.0594 24.7763 21.3245 24.7763 25.6165C24.7763 30.0625 27.5795 33.112 32.0768 33.112C35.4857 33.112 37.6933 31.5821 38.7612 28.3067H35.3009C34.921 29.5286 33.3911 30.1652 32.2 30.1652C29.9 30.1652 28.6987 28.8201 28.6987 26.5406H38.9871C38.9973 26.3045 39.0179 26.0478 39.0179 25.8013Z" fill="#D5D4D6"/>
</svg>
