<svg width="30" height="30" viewBox="0 0 30 30" fill="none" xmlns="http://www.w3.org/2000/svg">
<g clip-path="url(#clip0_72_255)">
<path d="M14.5031 21.825C14.5348 21.8563 14.5693 21.8846 14.6063 21.9094L14.6625 21.9398C14.7048 21.9669 14.7516 21.986 14.8008 21.9961L14.8594 22.0125C14.9492 22.0302 15.0415 22.0302 15.1313 22.0125L15.1922 21.9937L15.2625 21.9727C15.2866 21.9615 15.3101 21.949 15.3328 21.9352L15.3821 21.907C15.4209 21.881 15.457 21.8512 15.4899 21.818L21.7969 15.518C21.8756 15.4567 21.9403 15.3795 21.9869 15.2914C22.0334 15.2032 22.0607 15.1062 22.0669 15.0067C22.073 14.9072 22.058 14.8075 22.0227 14.7143C21.9875 14.621 21.9328 14.5364 21.8623 14.4659C21.7918 14.3954 21.7071 14.3407 21.6139 14.3054C21.5206 14.2701 21.421 14.2551 21.3215 14.2613C21.222 14.2675 21.1249 14.2947 21.0368 14.3413C20.9486 14.3878 20.8714 14.4526 20.8102 14.5312L15.7031 19.6313V0.703125C15.7031 0.516645 15.6291 0.337802 15.4972 0.205941C15.3653 0.074079 15.1865 0 15 0C14.8135 0 14.6347 0.074079 14.5028 0.205941C14.371 0.337802 14.2969 0.516645 14.2969 0.703125V19.6313L9.18986 14.5312C9.05459 14.426 8.88552 14.3738 8.71445 14.3844C8.54337 14.395 8.38207 14.4678 8.26087 14.589C8.13967 14.7102 8.06692 14.8715 8.05629 15.0426C8.04566 15.2136 8.09788 15.3827 8.20314 15.518L14.5031 21.825Z" fill="#41C1EF"/>
<path d="M29.2969 20.625C29.1104 20.625 28.9316 20.6991 28.7997 20.8309C28.6678 20.9628 28.5938 21.1416 28.5938 21.3281V26.4844C28.5938 27.0438 28.3715 27.5803 27.9759 27.9759C27.5803 28.3715 27.0438 28.5938 26.4844 28.5938H3.51562C2.95618 28.5938 2.41966 28.3715 2.02407 27.9759C1.62849 27.5803 1.40625 27.0438 1.40625 26.4844V21.3281C1.40625 21.1416 1.33217 20.9628 1.20031 20.8309C1.06845 20.6991 0.889605 20.625 0.703125 20.625C0.516645 20.625 0.337802 20.6991 0.205941 20.8309C0.074079 20.9628 0 21.1416 0 21.3281L0 26.4844C0 27.4168 0.370395 28.311 1.0297 28.9703C1.68901 29.6296 2.58322 30 3.51562 30H26.4844C27.4168 30 28.311 29.6296 28.9703 28.9703C29.6296 28.311 30 27.4168 30 26.4844V21.3281C30 21.1416 29.9259 20.9628 29.7941 20.8309C29.6622 20.6991 29.4834 20.625 29.2969 20.625Z" fill="#41C1EF"/>
</g>
<defs>
<clipPath id="clip0_72_255">
<rect width="30" height="30" fill="white"/>
</clipPath>
</defs>
</svg>
