<svg width="46" height="47" viewBox="0 0 46 47" fill="none" xmlns="http://www.w3.org/2000/svg">
<path d="M41.0714 0.285706H4.92857C2.20759 0.285706 0 2.49329 0 5.21428V41.3571C0 44.0781 2.20759 46.2857 4.92857 46.2857H41.0714C43.7924 46.2857 46 44.0781 46 41.3571V5.21428C46 2.49329 43.7924 0.285706 41.0714 0.285706ZM28.4728 39.6835C27.6103 39.8375 27.292 39.3036 27.292 38.862C27.292 38.3076 27.3125 35.4737 27.3125 33.1839C27.3125 31.5821 26.7786 30.5656 26.1522 30.0317C29.9513 29.6107 33.9558 29.087 33.9558 22.5259C33.9558 20.6571 33.2884 19.7228 32.2 18.5214C32.3746 18.0799 32.9598 16.2625 32.0254 13.9009C30.5982 13.4594 27.333 15.7388 27.333 15.7388C25.9777 15.3589 24.5094 15.1638 23.0616 15.1638C21.6138 15.1638 20.1455 15.3589 18.7902 15.7388C18.7902 15.7388 15.525 13.4594 14.0978 13.9009C13.1634 16.2522 13.7384 18.0696 13.9232 18.5214C12.8348 19.7228 12.3214 20.6571 12.3214 22.5259C12.3214 29.0562 16.1513 29.6107 19.9504 30.0317C19.4576 30.4732 19.0161 31.233 18.8621 32.3214C17.8866 32.7629 15.3915 33.5228 13.9027 30.8942C12.9683 29.2719 11.2844 29.1384 11.2844 29.1384C9.62098 29.1178 11.1714 30.1857 11.1714 30.1857C12.2804 30.6991 13.0607 32.6705 13.0607 32.6705C14.0567 35.7201 18.821 34.6933 18.821 34.6933C18.821 36.1205 18.8415 38.4411 18.8415 38.862C18.8415 39.3036 18.5335 39.8375 17.6607 39.6835C10.8839 37.4143 6.14018 30.9661 6.14018 23.4295C6.14018 14.0036 13.3482 6.84687 22.7741 6.84687C32.2 6.84687 39.8393 14.0036 39.8393 23.4295C39.8496 30.9661 35.2496 37.4245 28.4728 39.6835ZM18.4 33.4098C18.2049 33.4509 18.0201 33.3687 17.9996 33.2353C17.979 33.0812 18.1125 32.9478 18.3076 32.9067C18.5027 32.8862 18.6875 32.9683 18.708 33.1018C18.7388 33.2353 18.6054 33.3687 18.4 33.4098ZM17.4246 33.3174C17.4246 33.4509 17.2705 33.5638 17.0652 33.5638C16.8393 33.5844 16.6853 33.4714 16.6853 33.3174C16.6853 33.1839 16.8393 33.071 17.0446 33.071C17.2397 33.0504 17.4246 33.1634 17.4246 33.3174ZM16.0179 33.2045C15.9768 33.3379 15.7714 33.3995 15.5969 33.3379C15.4018 33.2969 15.2683 33.1429 15.3094 33.0094C15.3504 32.8759 15.5558 32.8143 15.7304 32.8554C15.9357 32.917 16.0692 33.071 16.0179 33.2045ZM14.7549 32.65C14.6625 32.7629 14.4674 32.7424 14.3134 32.5884C14.1594 32.4549 14.1183 32.2598 14.221 32.1674C14.3134 32.0545 14.5085 32.075 14.6625 32.229C14.796 32.3625 14.8473 32.5679 14.7549 32.65ZM13.8205 31.7156C13.7281 31.7772 13.5536 31.7156 13.4406 31.5616C13.3277 31.4076 13.3277 31.233 13.4406 31.1612C13.5536 31.0687 13.7281 31.1406 13.8205 31.2946C13.9335 31.4487 13.9335 31.6335 13.8205 31.7156V31.7156ZM13.1531 30.7196C13.0607 30.812 12.9067 30.7607 12.7938 30.658C12.6808 30.5245 12.6603 30.3705 12.7527 30.2987C12.8451 30.2062 12.9991 30.2576 13.1121 30.3603C13.225 30.4937 13.2455 30.6478 13.1531 30.7196ZM12.4652 29.9598C12.4241 30.0522 12.2906 30.0728 12.1777 30.0009C12.0442 29.9393 11.9826 29.8263 12.0237 29.7339C12.0647 29.6723 12.1777 29.6415 12.3112 29.6928C12.4446 29.7647 12.5063 29.8777 12.4652 29.9598Z" fill="#D5D4D6"/>
</svg>
