<svg width="42" height="42" viewBox="0 0 42 42" fill="none" xmlns="http://www.w3.org/2000/svg">
<path d="M21.75 4.55245V13.4847C24.2913 13.4275 26.8098 12.9875 29.2198 12.1799C27.5775 7.81483 24.7801 4.96483 21.75 4.55237V4.55245Z" fill="#D5D4D6"/>
<path d="M26.8201 5.55737C28.5233 7.27766 29.8224 9.35554 30.6226 11.6401C31.5976 11.2303 32.5294 10.7253 33.4053 10.1324C31.6224 8.08629 29.3597 6.51463 26.8201 5.55737Z" fill="#D5D4D6"/>
<path d="M21.75 20.25H30.72C30.6671 18.0017 30.3192 15.77 29.6851 13.6124C27.1237 14.4642 24.4488 14.9269 21.7502 14.9849L21.75 20.25Z" fill="#D5D4D6"/>
<path d="M34.5034 33.75H31.4998C31.8865 34.5519 32.392 35.2909 32.9998 35.9414C33.6088 35.2912 34.1158 34.5522 34.5034 33.75Z" fill="#D5D4D6"/>
<path d="M24.75 42H41.25C41.4489 42 41.6397 41.921 41.7803 41.7804C41.921 41.6398 42 41.4489 42 41.25V29.25C42 29.0511 41.921 28.8603 41.7803 28.7197C41.6397 28.579 41.4489 28.5 41.25 28.5H34.5C34.3594 28.501 34.2217 28.4618 34.1025 28.3875L29.25 25.35V27.75C29.25 27.9489 29.171 28.1397 29.0304 28.2803C28.8897 28.421 28.6989 28.5 28.5 28.5H24.75C24.3358 28.5 24 28.8358 24 29.25V41.25C24 41.4489 24.079 41.6397 24.2196 41.7803C24.3603 41.921 24.5511 42 24.75 42L24.75 42ZM28.5 32.25H32.25V31.5C32.25 31.0858 32.5858 30.75 33 30.75C33.4141 30.75 33.75 31.0858 33.75 31.5V32.25H37.5C37.9141 32.25 38.25 32.5858 38.25 33C38.25 33.4142 37.9141 33.75 37.5 33.75H36.1198C35.6514 34.933 34.9677 36.0191 34.1038 36.9532C34.4165 37.1947 34.7447 37.416 35.0855 37.6155L36.3709 38.3481H36.3712C36.7311 38.5534 36.8567 39.0114 36.6518 39.3714C36.4465 39.7313 35.9885 39.8569 35.6285 39.652L34.3384 38.917V38.9167C33.8697 38.6408 33.4221 38.3294 32.9998 37.9863C32.5793 38.3288 32.133 38.6392 31.6656 38.9147L30.3711 39.652C30.1984 39.7504 29.9935 39.7762 29.8016 39.7233C29.6098 39.6707 29.4467 39.5442 29.3479 39.3714C29.143 39.0115 29.2686 38.5534 29.6285 38.3482L30.9186 37.6132C31.2571 37.414 31.5829 37.1937 31.8936 36.9533C31.0304 36.0192 30.3477 34.933 29.88 33.7501H28.4998C28.0856 33.7501 27.7498 33.4142 27.7498 33.0001C27.7498 32.5859 28.0856 32.2501 28.4998 32.2501L28.5 32.25Z" fill="#D5D4D6"/>
<path d="M24.7501 26.9999H27.7501V23.9999C27.7535 23.7287 27.9018 23.4799 28.1389 23.3484C28.3759 23.2164 28.6655 23.2218 28.8976 23.3624L30.5402 24.39C30.6504 23.5137 30.7156 22.6328 30.7351 21.7499H21.7505V27.0223C22.4704 27.0374 23.2057 27.0823 23.9479 27.1499C24.2048 27.0541 24.4763 27.0033 24.7505 26.9999L24.7501 26.9999Z" fill="#D5D4D6"/>
<path d="M31.1023 13.0654C31.7991 15.3991 32.1797 17.8155 32.2347 20.2503H37.4696C37.335 17.0239 36.2408 13.9111 34.3273 11.3103C33.3154 12.0047 32.2347 12.593 31.1023 13.0655V13.0654Z" fill="#D5D4D6"/>
<path d="M21.75 37.4777C21.9974 37.4626 22.2526 37.4476 22.5 37.4251V29.2501C22.5044 29.0128 22.5449 28.7777 22.6199 28.5527C22.3272 28.5377 22.0423 28.5303 21.75 28.5226L21.75 37.4777Z" fill="#D5D4D6"/>
<path d="M31.9277 25.2599L34.7178 27H36.3527C37.011 25.3235 37.386 23.5493 37.4627 21.75H32.2351C32.2043 22.9252 32.1018 24.0975 31.9277 25.2599H31.9277Z" fill="#D5D4D6"/>
<path d="M9.19206 3.75H8.80835L7.68335 7.5H10.3171L9.19206 3.75Z" fill="#D5D4D6"/>
<path d="M20.2501 14.9777C19.5225 14.9626 18.7949 14.9177 18.0526 14.8501C17.7958 14.9459 17.5243 14.9967 17.2501 15.0001H14.2501V18.0001C14.2497 18.2726 14.1001 18.5231 13.86 18.6527C13.7515 18.718 13.6266 18.7514 13.5001 18.7501C13.3598 18.7501 13.2222 18.7109 13.1026 18.6376L11.46 17.6101C11.3549 18.4799 11.2876 19.3575 11.2651 20.2501H20.2497L20.2501 14.9777Z" fill="#D5D4D6"/>
<path d="M20.2501 37.4477V28.5154C17.7088 28.5726 15.1903 29.0126 12.7803 29.8202C14.4226 34.1853 17.22 37.0353 20.2501 37.4478V37.4477Z" fill="#D5D4D6"/>
<path d="M20.25 4.52246C20.0026 4.53753 19.7474 4.55259 19.5 4.57503V12.75C19.4956 12.9874 19.4551 13.2225 19.3801 13.4475C19.6728 13.4625 19.9577 13.4699 20.25 13.4776L20.25 4.52246Z" fill="#D5D4D6"/>
<path d="M15.18 36.4422C13.4768 34.7219 12.1777 32.644 11.3774 30.3595C10.4024 30.7693 9.47064 31.2742 8.59473 31.8672C10.3777 33.9133 12.6404 35.485 15.18 36.4422Z" fill="#D5D4D6"/>
<path d="M20.25 21.75H11.28C11.3329 23.9983 11.6808 26.2299 12.3149 28.3875C14.8763 27.5358 17.5512 27.073 20.2499 27.0151L20.25 21.75Z" fill="#D5D4D6"/>
<path d="M10.8978 28.9345C10.201 26.6008 9.82038 24.1844 9.76543 21.7496H4.53052C4.66511 24.976 5.75932 28.0888 7.6728 30.6896C8.68466 29.9952 9.76543 29.4069 10.8978 28.9345V28.9345Z" fill="#D5D4D6"/>
<path d="M5.64014 15C4.98423 16.6767 4.61157 18.451 4.5376 20.25H9.76514C9.79494 19.0771 9.8974 17.9076 10.0725 16.7475L7.28242 15H5.64014Z" fill="#D5D4D6"/>
<path d="M0.750026 13.5H7.50003C7.64065 13.499 7.77826 13.5381 7.89746 13.6125L12.75 16.65V14.25C12.75 13.8358 13.0858 13.5 13.5 13.5H17.25C17.4489 13.5 17.6397 13.421 17.7804 13.2804C17.921 13.1397 18 12.9489 18 12.75V0.75C18 0.551117 17.921 0.360266 17.7804 0.219643C17.6397 0.07902 17.4489 0 17.25 0H0.75C0.335829 0 0 0.335829 0 0.75V12.75C0 12.9489 0.0790183 13.1397 0.219643 13.2804C0.360267 13.421 0.551117 13.5 0.75 13.5L0.750026 13.5ZM5.28148 10.2846L7.53148 2.78464C7.62657 2.46723 7.91853 2.24993 8.25001 2.24993H9.75001C10.0815 2.24993 10.3734 2.46723 10.4685 2.78464L12.7185 10.2846C12.7755 10.4752 12.7547 10.6807 12.6603 10.8559C12.5659 11.031 12.4058 11.1612 12.2153 11.2185C12.1453 11.2392 12.073 11.2496 12 11.2499C11.6685 11.2499 11.3766 11.0326 11.2815 10.7152L10.7669 8.99991H7.23312L6.7185 10.7152C6.59964 11.112 6.18145 11.3373 5.78464 11.2185C5.38788 11.0996 5.16255 10.6814 5.28141 10.2846L5.28148 10.2846Z" fill="#D5D4D6"/>
</svg>
