<svg width="44" height="44" viewBox="0 0 44 44" fill="none" xmlns="http://www.w3.org/2000/svg">
<path d="M23.5209 19.9015V19.8336C23.5068 19.8565 23.4918 19.8795 23.4768 19.9015H23.5209Z" fill="#D5D4D6"/>
<path d="M40.449 0.116028H3.30152C1.52352 0.116028 0.081543 1.52361 0.081543 3.25839V40.8406C0.081543 42.5745 1.52352 43.9821 3.30152 43.9821H40.449C42.2296 43.9821 43.6716 42.5736 43.6716 40.8406V3.25839C43.6716 1.52273 42.2287 0.116028 40.449 0.116028ZM13.2939 36.8375H6.71023V17.0299H13.2939V36.8375ZM10.0025 14.3241H9.95842C7.75004 14.3241 6.32129 12.8028 6.32129 10.9022C6.32129 8.95927 7.79414 7.48025 10.0457 7.48025C12.2982 7.48025 13.6838 8.95927 13.7279 10.9022C13.7279 12.8028 12.2973 14.3241 10.0025 14.3241ZM37.035 36.8375H30.4513V26.2383C30.4513 23.5766 29.4988 21.7598 27.1166 21.7598C25.2981 21.7598 24.215 22.9848 23.7379 24.1684C23.5642 24.5908 23.5218 25.1817 23.5218 25.7744V36.8366H16.9381C16.9381 36.8366 17.0246 18.8855 16.9381 17.029H23.5218V19.8327C24.3967 18.4834 25.9613 16.5616 29.4564 16.5616C33.7876 16.5616 37.0358 19.3935 37.0358 25.4781V36.8375H37.035Z" fill="#D5D4D6"/>
</svg>
