<svg width="65" height="71" viewBox="0 0 65 71" fill="none" xmlns="http://www.w3.org/2000/svg">
<path d="M29.4169 0.248465C27.131 0.624441 24.7097 1.63206 22.7696 3.00061C17.0398 7.04612 14.3929 14.7311 16.348 21.649C17.3405 25.1381 19.7769 28.5369 22.7396 30.5522L23.672 31.1838L21.8823 31.8155C17.2804 33.4246 13.4905 35.8158 10.0015 39.3199C5.06866 44.2678 2.06085 50.2082 0.962995 57.2315C0.617097 59.4422 0.617097 64.1494 0.947956 65.6533C1.54952 68.3002 2.39171 69.6086 4.03096 70.4207C5.0085 70.902 5.11378 70.917 6.78311 70.902C9.30968 70.8869 10.8888 70.4207 16.1224 68.0897C21.1755 65.8489 24.078 64.8713 27.6724 64.1946C30.1839 63.7133 34.8159 63.7133 37.3124 64.1946C40.8767 64.8713 44.2454 65.9842 48.9075 68.0746C52.4567 69.6537 54.6224 70.4508 56.2616 70.7516C59.1642 71.308 61.1042 70.8719 62.4878 69.3379C63.7812 67.9092 64.2323 66.2549 64.3376 62.6455C64.503 57.2916 63.5405 52.8401 61.2245 48.0125C59.4349 44.328 57.6603 41.8766 54.6675 38.959C51.9304 36.2971 49.6444 34.703 46.2456 33.0787C45.253 32.5975 43.7341 31.9658 42.8919 31.6801L41.3579 31.1688L42.3505 30.477C49.1331 25.6344 51.2536 16.6711 47.4036 9.06136C44.486 3.30139 38.9366 -0.0372773 32.3646 0.022879C31.4021 0.037918 30.0786 0.128152 29.4169 0.248465ZM35.1317 4.05335C43.5235 5.78284 47.8849 14.686 44.2153 22.5664C42.0948 27.0932 37.6433 29.8153 32.3495 29.8303C26.5294 29.8453 21.5064 25.9201 19.837 20.0549C19.5663 19.1074 19.5062 18.4908 19.5062 16.8516C19.4911 14.5055 19.7167 13.4227 20.6191 11.4977C21.4161 9.78323 22.1982 8.68538 23.5817 7.36194C26.7249 4.35413 30.8757 3.16604 35.1317 4.05335ZM35.6581 33.9209C42.1099 34.6879 47.8097 37.4401 52.3515 41.9668C57.8558 47.4862 60.9087 55.1862 60.5778 62.7207C60.4876 64.751 60.0966 66.3752 59.5853 66.8414C58.6077 67.7287 56.9234 67.3528 51.2235 64.9315C42.2302 61.1416 37.9591 60.0137 32.4999 60.0137C27.146 60.0137 23.1456 61.0664 14.3026 64.751C8.75323 67.067 6.738 67.6235 5.7755 67.1121C4.33175 66.3301 3.97081 61.277 4.99346 56.1787C5.80557 52.1182 7.79073 47.8772 10.4526 44.4483C11.4753 43.1248 13.7462 40.869 15.1599 39.7711C21.0401 35.1541 28.3942 33.0637 35.6581 33.9209Z" fill="#41C1EF"/>
</svg>
