<svg width="25" height="25" viewBox="0 0 25 25" fill="none" xmlns="http://www.w3.org/2000/svg">
<rect width="25" height="25" rx="5" fill="#D5D4D6"/>
<path d="M16.1638 7.28218C15.1187 7.41431 14.1698 7.91883 13.7133 8.56748C13.425 8.9759 13.3409 9.24017 13.3049 9.84078C13.1968 11.4384 14.0977 12.2672 16.6323 12.9159C17.1969 13.0601 17.7975 13.2522 17.9897 13.3483C19.1789 13.961 18.6143 15.2823 17.2089 15.1622C16.4761 15.1021 16.0317 14.7778 15.8034 14.1412L15.6353 13.6366H14.8305C14.398 13.6366 13.7734 13.6727 13.4611 13.7207L12.8965 13.7928L12.9686 14.2613C13.0166 14.5255 13.1487 14.946 13.2809 15.2102C13.9295 16.4715 15.0707 17.0001 17.1608 17.0001C19.287 17.0001 20.5242 16.4235 21.1489 15.1502C21.4372 14.5736 21.4732 14.3694 21.4252 13.6487C21.3891 12.9519 21.317 12.7117 21.0288 12.2913C20.5723 11.6306 19.5513 11.1141 17.9056 10.6936C16.2599 10.2612 16.0557 10.1771 15.9596 9.81676C15.8995 9.57651 15.9596 9.44438 16.2119 9.22816C16.8365 8.69962 17.9536 8.9759 18.278 9.74468C18.4702 10.2011 18.5663 10.2252 20.272 10.081L21.1729 9.99694L21.0648 9.50444C20.8366 8.51944 20.1879 7.81072 19.1669 7.47437C18.4461 7.24614 17.1248 7.15004 16.1638 7.28218Z" fill="#2D2D2D"/>
<path d="M3.55103 12.1351V16.8799H4.99249H6.43396V14.958V13.036H6.78231C7.34689 13.036 7.69524 13.4565 8.64421 15.1982L9.50908 16.8199L11.1548 16.8559C12.0557 16.8679 12.8004 16.8679 12.8004 16.8319C12.8004 16.6998 11.2869 13.8889 11.0226 13.5405C10.8545 13.3243 10.5301 13.048 10.2899 12.9159L9.85744 12.6997L10.3139 12.5075C11.0827 12.1952 11.4911 11.8228 11.7914 11.1862C12.5242 9.61255 11.7434 7.85877 10.1577 7.52243C9.80939 7.45035 8.27183 7.39029 6.55408 7.39029H3.55103V12.1351ZM8.81238 9.51646C9.37695 9.99694 9.19677 10.8258 8.47603 11.078C8.2478 11.1621 7.69524 11.2222 7.25079 11.2222L6.43396 11.2342V10.2732V9.31225H7.50304C8.3439 9.31225 8.62018 9.3603 8.81238 9.51646Z" fill="#2D2D2D"/>
</svg>
