<svg width="25" height="25" viewBox="0 0 25 25" fill="none" xmlns="http://www.w3.org/2000/svg">
<rect width="25" height="25" rx="5" fill="#D5D4D6"/>
<path d="M9.27254 3.07757L6.09038 4.68359L6.08215 6.33302V7.97522L6.27127 7.87394C6.36995 7.8233 7.80891 7.0854 9.47811 6.24621L12.4958 4.71253L15.5217 6.24621C17.1827 7.0854 18.6217 7.8233 18.7286 7.87394L18.9095 7.97522V6.33302L18.9013 4.68359L15.7931 3.11374C14.0746 2.24562 12.6274 1.52218 12.5698 1.50048C12.504 1.47878 11.024 2.18774 9.27254 3.07757Z" fill="#B511EF"/>
<path d="M6 14.6597C6 17.0687 6.03289 18.8194 6.09045 19.1595C6.35357 20.8378 7.3814 22.1038 9.06705 22.8345C9.96331 23.2179 10.5389 23.3554 11.6736 23.4567C13.6717 23.6375 15.7027 23.16 17.0348 22.1979C17.8982 21.5685 18.4409 20.8161 18.7698 19.7816C18.9342 19.2463 18.9424 19.0582 18.9753 14.9708L19 10.7242H17.2732H15.5465L15.5218 14.761L15.4972 18.7905L15.2258 19.2752C14.124 21.2502 10.8678 21.2502 9.76597 19.2752L9.49462 18.7905L9.46996 14.761L9.44529 10.7242H7.72676H6V14.6597Z" fill="#2D2D2D"/>
</svg>
