<svg width="46" height="46" viewBox="0 0 46 46" fill="none" xmlns="http://www.w3.org/2000/svg">
<path fill-rule="evenodd" clip-rule="evenodd" d="M40.3799 0C43.4818 0 46 2.51832 46 5.62009V40.3799C46 43.4817 43.4817 46 40.3799 46H5.62009C2.51832 46 0 43.4817 0 40.3799V5.62009C0 2.51832 2.51823 0 5.62009 0H40.3799V0ZM35.1085 11.4733C32.068 8.42932 28.0246 6.75221 23.7165 6.75041C14.84 6.75041 7.61561 13.9743 7.6121 22.8535C7.61093 25.6919 8.3525 28.4622 9.76179 30.9045L7.47716 39.2496L16.0142 37.0102C18.3664 38.2932 21.0148 38.9695 23.71 38.9703H23.7167C32.5923 38.9703 39.8172 31.7457 39.8209 22.8664C39.8225 18.5633 38.1489 14.5172 35.1085 11.4733V11.4733ZM23.7166 36.2506H23.7112C21.3093 36.2497 18.9536 35.6044 16.8985 34.3848L16.4097 34.0947L11.3438 35.4237L12.6959 30.4843L12.3777 29.9779C11.0378 27.8468 10.3301 25.3836 10.3311 22.8545C10.3341 15.4745 16.3387 9.47034 23.722 9.47034C27.2971 9.4716 30.6578 10.8657 33.1851 13.3958C35.7123 15.9258 37.1031 19.2888 37.1018 22.8653C37.0987 30.2459 31.0943 36.2505 23.7166 36.2506ZM31.0587 26.2257C30.6563 26.0243 28.6779 25.051 28.3091 24.9166C27.9403 24.7823 27.6721 24.7153 27.4038 25.118C27.1355 25.5207 26.3644 26.4272 26.1296 26.6958C25.8949 26.9643 25.6602 26.998 25.2579 26.7964C24.8555 26.5951 23.5589 26.1702 22.022 24.7992C20.8258 23.7322 20.0181 22.4146 19.7834 22.0117C19.5487 21.6089 19.7583 21.3911 19.9598 21.1905C20.1409 21.0102 20.3623 20.7205 20.5634 20.4855C20.7647 20.2506 20.8317 20.0827 20.9658 19.8142C21.1 19.5456 21.033 19.3107 20.9322 19.1093C20.8317 18.908 20.0269 16.9272 19.6916 16.1215C19.365 15.3369 19.0333 15.4432 18.7862 15.4308C18.5518 15.4191 18.2833 15.4166 18.0151 15.4166C17.7468 15.4166 17.3108 15.5173 16.942 15.92C16.5732 16.3229 15.5337 17.2964 15.5337 19.277C15.5337 21.2577 16.9755 23.171 17.1767 23.4396C17.3779 23.7082 20.0141 27.7725 24.0507 29.5155C25.0107 29.9301 25.7603 30.1777 26.3447 30.3631C27.3085 30.6694 28.1858 30.6262 28.8791 30.5225C29.6522 30.4071 31.2599 29.5492 31.5952 28.6093C31.9305 27.6692 31.9305 26.8635 31.8298 26.6958C31.7293 26.5279 31.461 26.4272 31.0587 26.2257V26.2257Z" fill="#D5D4D6"/>
</svg>
