<svg width="36" height="36" viewBox="0 0 36 36" fill="none" xmlns="http://www.w3.org/2000/svg">
<path d="M0.5 0.5V35.5H35.5V0.5H0.5ZM19.25 27.6875C19.25 31.0945 17.2375 32.7555 14.3242 32.7555C11.693 32.7555 10.1656 31.393 9.39062 29.7484L12.0688 28.1273C12.5852 29.0438 12.9773 29.8188 14.1047 29.8188C15.0422 29.8188 15.8125 29.3961 15.8125 27.7516V16.75H19.25V27.6875ZM27.0117 32.6773C23.9578 32.6773 21.9844 31.2992 21.0211 29.3961L23.7031 27.8438C24.4062 28.9953 25.3242 29.7625 26.9453 29.7625C28.3078 29.7625 29.0992 29.1594 29.0992 28.2195C29.0992 27.0922 28.2844 26.693 26.7805 26.032L25.9586 25.6789C23.5852 24.6695 22.0117 23.4008 22.0117 20.7219C22.0117 18.2555 23.8906 16.4539 26.8273 16.4539C28.9187 16.4539 30.4211 17.1039 31.5031 19.007L28.9375 20.6562C28.3734 19.6461 27.7656 19.25 26.8234 19.25C25.8602 19.25 25.2492 19.8609 25.2492 20.6562C25.2492 21.643 25.8602 22.0422 27.2695 22.6531L28.0914 23.0055C30.8875 24.2039 32.4617 25.4273 32.4617 28.1742C32.4625 31.1352 30.1367 32.6773 27.0117 32.6773Z" fill="#D5D4D6"/>
</svg>
