<svg width="36" height="38" viewBox="0 0 36 38" fill="none" xmlns="http://www.w3.org/2000/svg">
<path d="M19.3333 10.245L25.3309 13.8437L34.0487 9.48482L19.3333 0.900879V10.245Z" fill="#D5D4D6"/>
<path d="M16.6666 0.900879L1.95117 9.48488L10.6688 13.8437L16.6666 10.245V0.900879Z" fill="#D5D4D6"/>
<path d="M0.666748 11.824V26.2816L10.0001 22.1335V16.4906L0.666748 11.824Z" fill="#D5D4D6"/>
<path d="M2.06177 28.5796L16.6666 37.0991V27.7548L11.2415 24.4998L2.06177 28.5796Z" fill="#D5D4D6"/>
<path d="M19.3333 37.0993L33.9381 28.5798L24.7583 24.5L19.3333 27.755V37.0993Z" fill="#D5D4D6"/>
<path d="M35.3333 26.2819V11.824L26 16.4906V22.1337L35.3333 26.2819Z" fill="#D5D4D6"/>
<path d="M19.3333 24.6451L23.3333 22.2451V17.824L19.3333 19.824V24.6451Z" fill="#D5D4D6"/>
<path d="M16.6667 19.824V24.645L12.6667 22.245V17.824L16.6667 19.824Z" fill="#D5D4D6"/>
<path d="M13.4961 15.2573L18 17.5093L22.504 15.2573L18.0001 12.5549L13.4961 15.2573Z" fill="#D5D4D6"/>
</svg>
