<svg width="55" height="55" viewBox="0 0 55 55" fill="none" xmlns="http://www.w3.org/2000/svg">
<g clip-path="url(#clip0_67_1712)">
<rect width="55" height="55" fill="#35A0EE"/>
<path d="M0 27.5V55H27.5H55V27.5V3.8147e-06H27.5H0V27.5ZM38.445 4.63146C38.7681 4.66125 39.199 4.74834 39.4808 4.83771C41.1721 5.38084 42.3454 6.93917 42.8862 9.36375C43.4294 11.7998 43.2942 14.9783 42.4967 18.4685C42.4417 18.7138 42.4027 18.9223 42.4119 18.9292C42.4233 18.9383 42.6319 19.0048 42.8771 19.0781C46.4383 20.1415 49.4725 21.7502 51.2554 23.524C52.4608 24.7248 53.1025 25.944 53.1873 27.1975C53.3615 29.7619 51.0629 32.3996 46.8829 34.43C45.6477 35.0304 44.1398 35.6194 42.8244 36.0158C42.6708 36.0617 42.5356 36.1075 42.5265 36.1167C42.515 36.1258 42.5494 36.3183 42.6021 36.5429C42.9435 37.9981 43.1612 39.451 43.269 40.9865C43.3056 41.4975 43.3056 42.9229 43.2712 43.4156C43.0765 46.0808 42.3569 48.0196 41.1171 49.2044C40.4204 49.8713 39.6458 50.2288 38.5802 50.3754C38.3121 50.4121 37.5283 50.4121 37.2052 50.3731C35.601 50.1875 33.8731 49.5138 31.9802 48.3313C30.6327 47.4925 29.0744 46.2642 27.791 45.0335C27.626 44.8731 27.5573 44.8227 27.5344 44.8388C27.5183 44.8502 27.3098 45.0381 27.0715 45.2581C24.5644 47.5796 21.929 49.2319 19.5594 49.9698C19.0048 50.1417 18.5167 50.2517 17.9094 50.341C17.5633 50.3915 16.5733 50.3983 16.2594 50.3525C15.4115 50.231 14.7079 49.9515 14.1167 49.5C11.6371 47.6117 10.9862 42.7671 12.4025 36.74C12.4552 36.5177 12.4987 36.3092 12.4987 36.2794C12.501 36.229 12.4804 36.2198 12.2444 36.1488C9.82667 35.4383 7.49604 34.3842 5.76354 33.22C4.94771 32.6723 4.27396 32.1177 3.66667 31.4967C2.62396 30.4288 2.035 29.4204 1.79437 28.2906C1.73708 28.0156 1.7325 27.9538 1.7325 27.4656C1.7325 26.9775 1.73708 26.9156 1.79437 26.6452C2.03271 25.5269 2.61708 24.5392 3.65521 23.4988C4.68417 22.4698 5.94687 21.599 7.63125 20.7602C9.03375 20.0613 10.3537 19.5571 12.3773 18.9475L12.5515 18.8948L12.4758 18.574C12.0633 16.8621 11.8044 15.1915 11.7104 13.6331C11.6783 13.1083 11.6783 11.77 11.7104 11.3438C11.8342 9.66625 12.1229 8.44021 12.65 7.36771C13.3879 5.86667 14.4971 4.99355 15.9981 4.73458C18.0217 4.38396 20.6892 5.22729 23.5515 7.12479C24.8004 7.95208 26.0929 8.98104 27.2204 10.0444L27.4794 10.2896L27.9079 9.89083C30.9421 7.0675 33.9396 5.28 36.5177 4.7575C36.7606 4.70938 37.2167 4.64292 37.4802 4.6223C37.6979 4.60396 38.2135 4.60854 38.445 4.63146Z" fill="#2D2D2D"/>
<path d="M37.3312 6.84061C35.3971 7.12019 32.9862 8.41727 30.5021 10.5164C29.9796 10.9587 29.0354 11.8204 29.0354 11.8548C29.0354 11.8639 29.1454 11.9946 29.2829 12.1412C30.4517 13.4177 31.7144 14.9875 32.9564 16.7062L33.3804 17.2906L33.9739 17.3525C35.2389 17.4854 36.5612 17.6687 37.7552 17.875C38.4106 17.9896 39.5839 18.2233 40.0079 18.3242C40.1385 18.3539 40.2485 18.3792 40.2554 18.3792C40.2783 18.3792 40.4685 17.5312 40.5969 16.846C40.8581 15.4435 40.9887 14.2267 41.0139 12.9594C41.0506 11.0023 40.7825 9.41644 40.2233 8.30727C39.8108 7.48457 39.2814 7.01707 38.5917 6.86352C38.3556 6.81082 37.6269 6.79707 37.3312 6.84061Z" fill="#2D2D2D"/>
<path d="M16.4198 6.88423C15.6292 7.00798 15.1044 7.4136 14.6713 8.22714C14.0709 9.35694 13.7867 11.1788 13.8875 13.2574C13.9586 14.7057 14.1694 16.1678 14.5452 17.7949C14.614 18.0974 14.6736 18.3471 14.6759 18.3517C14.6804 18.354 14.9234 18.3059 15.2167 18.2417C17.0981 17.8407 19.4471 17.4832 21.3584 17.309L21.5531 17.2907L21.7663 16.9928C22.935 15.3657 24.2779 13.6928 25.4513 12.4003C25.6392 12.1917 25.8271 11.9855 25.8684 11.9374L25.9417 11.8526L25.559 11.4974C22.6692 8.83214 19.6602 7.12027 17.435 6.87735C17.1463 6.84527 16.6513 6.84985 16.4198 6.88423Z" fill="#2D2D2D"/>
<path d="M27.2479 13.6836C26.4733 14.5269 25.4696 15.7254 24.6721 16.7613C24.5392 16.9354 24.4315 17.0821 24.4338 17.0844C24.4383 17.089 24.6217 17.0821 24.8417 17.0706C25.9783 17.0133 29.7092 17.0248 30.36 17.0867C30.4379 17.0958 30.5021 17.0913 30.5021 17.0821C30.5021 17.0706 30.3508 16.8644 30.1675 16.6261C29.4319 15.6727 28.6756 14.7538 27.9835 13.9815C27.7865 13.7615 27.594 13.5461 27.5573 13.5025L27.4863 13.4223L27.2479 13.6836Z" fill="#2D2D2D"/>
<path d="M26.0195 19.2294C25.0318 19.25 23.4941 19.3257 22.912 19.3784L22.7585 19.3921L22.2795 20.1163C20.8862 22.2246 19.7197 24.2413 18.5808 26.5055L18.072 27.5161L18.3424 28.0638C19.4631 30.3417 20.7945 32.6494 22.2566 34.8609L22.7837 35.6561L22.9006 35.6675C22.967 35.6767 23.3199 35.6973 23.6843 35.7157C26.086 35.8371 28.797 35.8371 31.0291 35.7157C32.0351 35.6607 32.1474 35.6515 32.1704 35.6378C32.1818 35.6309 32.3216 35.4269 32.4774 35.1886C33.9372 32.9634 35.397 30.4288 36.5749 28.073C36.8499 27.523 36.8545 27.5115 36.827 27.4313C36.7858 27.3213 36.0845 25.96 35.7224 25.2886C34.6774 23.3613 33.5614 21.4982 32.4912 19.8917L32.1635 19.399L32.0374 19.383C31.6066 19.3325 30.0024 19.2569 28.7489 19.2271C27.6718 19.2019 27.1699 19.2019 26.0195 19.2294ZM27.8918 22.8938C29.5097 23.0542 30.9099 24.035 31.5997 25.488C32.5897 27.5711 31.9045 30.03 29.9749 31.3065C28.9781 31.9688 27.7451 32.2048 26.5374 31.9665C25.8362 31.8267 25.0708 31.4623 24.5322 31.0063C23.6591 30.2707 23.1389 29.3723 22.9235 28.2288C22.8731 27.9561 22.8662 27.0325 22.912 26.7667C23.0541 25.9692 23.3337 25.3069 23.7829 24.7065C23.9479 24.4865 24.3443 24.0763 24.5666 23.8953C25.4947 23.1459 26.7162 22.7769 27.8918 22.8938Z" fill="#2D2D2D"/>
<path d="M19.4563 19.7335C18.2875 19.8894 16.9492 20.1162 15.9019 20.3385C15.5696 20.4073 15.2946 20.4692 15.29 20.476C15.2511 20.5127 15.8882 22.3621 16.3442 23.5354C16.5963 24.1885 16.8942 24.9104 16.9102 24.9104C16.9171 24.9104 17.0477 24.6767 17.199 24.3902C17.9461 22.9762 18.8719 21.3744 19.6923 20.0796C19.8298 19.8619 19.9398 19.6808 19.9352 19.6762C19.9307 19.6717 19.7152 19.6992 19.4563 19.7335Z" fill="#2D2D2D"/>
<path d="M34.9937 19.6946C34.9937 19.7037 35.1632 19.981 35.3672 20.311C36.2105 21.6631 36.9805 23.0014 37.9155 24.7362L38.0255 24.9402L38.092 24.7821C38.2341 24.4498 38.6855 23.3223 38.8437 22.9052C39.1851 21.9954 39.687 20.5219 39.6641 20.4966C39.648 20.4829 38.6328 20.2675 38.053 20.1575C36.8866 19.9375 34.9937 19.6487 34.9937 19.6946Z" fill="#2D2D2D"/>
<path d="M12.6523 21.152C9.3019 22.1695 6.73982 23.5102 5.20211 25.0479C4.43899 25.811 4.00357 26.5581 3.91878 27.2502C3.76982 28.4487 4.90649 29.9933 6.95982 31.3797C8.33711 32.3125 10.1223 33.1535 12.1459 33.8227C12.4942 33.9372 13.0923 34.1206 13.1015 34.1137C13.1015 34.1137 13.2482 33.6783 13.4246 33.1489C14.025 31.3454 14.7057 29.6083 15.4665 27.9285L15.6521 27.5183L15.5032 27.1906C14.8867 25.827 14.3413 24.4864 13.8486 23.1229C13.6446 22.5591 13.2573 21.4018 13.1886 21.1566C13.1657 21.0787 13.1359 21.0145 13.1221 21.0168C13.1084 21.0168 12.8975 21.0787 12.6523 21.152Z" fill="#2D2D2D"/>
<path d="M41.5937 21.686C41.0047 23.4781 40.3287 25.2037 39.4854 27.0577L39.2952 27.4771L39.5839 28.1004C40.4318 29.9406 41.1354 31.696 41.69 33.3552C41.8022 33.6944 41.9008 33.9808 41.9054 33.9877C41.926 34.0221 43.4087 33.5248 44.1902 33.22C47.4283 31.9596 49.8941 30.1973 50.7145 28.5587C50.8543 28.2814 50.9323 28.05 50.9804 27.7727C51.1156 26.9981 50.7214 26.1273 49.8208 25.1991C48.95 24.3031 47.8752 23.5583 46.326 22.7791C45.1206 22.1719 43.8877 21.6837 42.4302 21.2346C42.1162 21.136 41.8458 21.0535 41.832 21.0489C41.816 21.0444 41.7197 21.3056 41.5937 21.686Z" fill="#2D2D2D"/>
<path d="M37.8606 30.3715C37.1869 31.664 35.9769 33.77 35.1588 35.0717C35.0556 35.2344 34.9731 35.3719 34.9777 35.3742C34.98 35.3788 35.0556 35.3719 35.1427 35.3604C36.8065 35.1335 37.5008 35.0235 38.5917 34.8081C39.1898 34.689 39.3938 34.6477 39.7306 34.5698C39.7788 34.5583 39.7765 34.5446 39.5886 33.99C39.1783 32.7685 38.7567 31.68 38.1425 30.2431C38.0967 30.1331 38.0508 30.0438 38.044 30.0438C38.0371 30.0438 37.9546 30.1904 37.8606 30.3715Z" fill="#2D2D2D"/>
<path d="M16.7682 30.4402C16.3052 31.5677 15.8675 32.7411 15.5009 33.8434C15.3565 34.2765 15.2396 34.634 15.2396 34.6386C15.2396 34.6798 16.8919 34.9892 18.0469 35.1634C18.7138 35.2642 19.8802 35.4109 19.9375 35.4017C19.9742 35.3948 19.9467 35.3421 19.7611 35.0511C18.9155 33.7242 17.8407 31.8725 17.1532 30.5525C17.0271 30.3119 16.9194 30.1125 16.9125 30.1125C16.9057 30.1125 16.8415 30.2592 16.7682 30.4402Z" fill="#2D2D2D"/>
<path d="M40.173 36.7148C39.8475 36.7973 38.3053 37.0998 37.6865 37.2029C36.5223 37.3954 35.2642 37.5627 34.0084 37.6887C33.6738 37.7208 33.4011 37.7506 33.3988 37.7529C33.3988 37.7529 33.2338 37.9867 33.0344 38.2708C31.7855 40.0423 30.6167 41.5158 29.1753 43.1337L29.0813 43.2392L29.4778 43.6058C32.2621 46.1862 34.9205 47.7675 37.1136 48.1479C37.659 48.2442 38.3098 48.2327 38.7109 48.1227C39.364 47.9417 39.8544 47.4971 40.2509 46.7271C40.7963 45.6706 41.069 44.3277 41.1057 42.5562C41.1378 40.8696 40.9269 39.0225 40.48 37.0906C40.3838 36.6781 40.3815 36.6667 40.3609 36.6689C40.3517 36.6712 40.2669 36.6919 40.173 36.7148Z" fill="#2D2D2D"/>
<path d="M14.6231 36.866C14.6093 36.9141 14.5589 37.1341 14.5085 37.3541C14.2197 38.6214 14.0341 39.7695 13.9195 40.9979C13.8691 41.5387 13.8508 43.0214 13.8852 43.5325C14.0479 45.8425 14.7147 47.4237 15.7414 47.9393C16.1035 48.1227 16.4816 48.1983 17.027 48.196C18.4295 48.1937 20.1941 47.5475 22.1466 46.3214C23.2306 45.6408 24.5185 44.6439 25.5154 43.7112C25.6895 43.5485 25.8752 43.3789 25.9256 43.3331L26.0195 43.2506L25.607 42.7945C24.342 41.3966 23.1183 39.8841 21.945 38.2639C21.6585 37.872 21.5714 37.7666 21.5325 37.7666C21.4454 37.7666 20.5035 37.6772 19.9489 37.6177C18.2806 37.4343 16.901 37.2235 15.4275 36.9302C15.0195 36.8477 14.6781 36.7812 14.6666 36.7812C14.6552 36.7812 14.6345 36.8202 14.6231 36.866Z" fill="#2D2D2D"/>
<path d="M30.1355 37.9523C29.4434 37.9867 26.3657 38.0028 25.4169 37.9753C24.8967 37.9592 24.4659 37.9523 24.4613 37.9569C24.4498 37.9684 24.8715 38.5184 25.3069 39.0615C25.9394 39.8498 26.7552 40.8055 27.2961 41.3898L27.5413 41.658L27.6444 41.5503C27.9469 41.2363 28.7788 40.2509 29.3723 39.5038C29.7321 39.0546 30.5067 38.0417 30.5571 37.9546C30.5686 37.9363 30.5548 37.9294 30.509 37.9317C30.4746 37.934 30.305 37.9432 30.1355 37.9523Z" fill="#2D2D2D"/>
</g>
<defs>
<clipPath id="clip0_67_1712">
<rect width="55" height="55" fill="white"/>
</clipPath>
</defs>
</svg>
