<svg width="61" height="61" viewBox="0 0 61 61" fill="none" xmlns="http://www.w3.org/2000/svg">
<rect x="30.115" width="43.3101" height="42.5215" rx="5" transform="rotate(45.0911 30.115 0)" fill="#D5D4D6"/>
<path d="M29.0822 1.36911C28.5496 1.63543 27.406 2.65371 25.4164 4.65893L22.5183 7.5571L25.9648 11.0036L29.4112 14.4501L30.5862 14.3561C32.1057 14.2307 33.2493 14.6224 34.252 15.6407C35.2702 16.6433 35.6619 17.7869 35.5366 19.3064L35.4426 20.4814L38.6697 23.7085L41.8969 26.9514L43.1971 26.8574C44.3407 26.7947 44.5914 26.826 45.3433 27.1707C48.2258 28.4866 48.9778 31.9017 46.9099 34.2046C45.8603 35.3796 45.1867 35.6772 43.5888 35.6772C42.5235 35.6772 42.1319 35.5989 41.6305 35.3326C40.8316 34.9096 39.7663 33.766 39.4373 32.9827C39.1397 32.3091 39.0614 30.9931 39.2493 30.0375L39.3747 29.4109L36.2258 26.2777L33.0927 23.1446V31.4631V39.7816L33.5 40.001C34.1423 40.3456 35.0822 41.5049 35.3486 42.2882C35.9439 44.0114 35.4739 45.766 34.0953 47.0192C32.5914 48.3978 30.8525 48.6328 29.0666 47.7242C26.9674 46.6433 26.0587 44.0897 27.03 41.9749C27.4373 41.0662 28.3303 40.1106 29.0352 39.7973L29.4896 39.5937V31.2751V22.9409L29.0509 22.7686C28.393 22.4866 27.359 21.3743 26.983 20.5127C26.607 19.6824 26.5444 18.2568 26.8264 17.5205C26.9987 17.0506 26.9674 17.0192 23.5052 13.5571L20.0117 10.0636L10.8786 19.1811C3.95431 26.1211 1.6671 28.5023 1.36945 29.0819C0.789818 30.2412 0.821149 31.7921 1.43212 32.8574C1.74543 33.3743 6.35117 38.0897 15.265 46.9879C25.6044 57.3117 28.7846 60.4135 29.3329 60.6485C30.1945 61.0401 31.7611 61.0871 32.5914 60.7425C33.3903 60.3978 60.2572 33.5937 60.6802 32.7007C61.0875 31.8391 61.0718 30.2568 60.6488 29.3326C60.4138 28.7843 57.312 25.6041 46.9883 15.2647C38.0901 6.35083 33.3747 1.74509 32.8577 1.43177C31.7924 0.820808 30.2415 0.789478 29.0822 1.36911Z" fill="#A3182F"/>
</svg>
