<svg width="60" height="60" viewBox="0 0 60 60" fill="none" xmlns="http://www.w3.org/2000/svg">
<path d="M49.4541 33.0226C47.5679 33.031 45.9344 33.4858 44.5703 34.1595C44.0734 33.1572 43.5597 32.2815 43.4754 31.6248C43.3747 30.8584 43.265 30.4039 43.383 29.4945C43.501 28.5849 44.0313 27.2965 44.0229 27.204C44.0146 27.1115 43.905 26.6482 42.8188 26.6398C41.7326 26.6315 40.7981 26.8503 40.6885 27.1365C40.5788 27.4228 40.3686 28.0714 40.2422 28.7449C40.0485 29.7301 38.0696 33.25 36.9496 35.0856C36.5792 34.3701 36.2677 33.7383 36.2002 33.2331C36.0992 32.4667 35.9897 32.0121 36.1076 31.1028C36.2255 30.1931 36.7559 28.9048 36.7475 28.8123C36.739 28.7198 36.6296 28.2565 35.5435 28.2481C34.4572 28.2398 33.5227 28.4585 33.413 28.7449C33.3036 29.0311 33.1857 29.7048 32.9668 30.3535C32.748 31.0015 30.1122 36.8622 29.4217 38.3864C29.0679 39.1609 28.765 39.7841 28.546 40.2053C28.5125 40.2726 28.4872 40.3148 28.4703 40.3485C28.4955 40.3064 28.5125 40.2641 28.5125 40.2812C28.3272 40.6431 28.2176 40.8453 28.2176 40.8453V40.8536C28.0744 41.123 27.9145 41.3671 27.8388 41.3671C27.7881 41.3671 27.6788 40.66 27.8641 39.6915C28.2597 37.6538 29.1944 34.488 29.1859 34.3783C29.1775 34.3193 29.3627 33.7721 28.5712 33.4772C27.805 33.1994 27.527 33.6626 27.4598 33.6626C27.3925 33.6626 27.3419 33.8311 27.3419 33.8311C27.3419 33.8311 28.1924 30.2608 25.7083 30.2608C24.159 30.2608 22.0034 31.9619 20.9425 33.5028C20.2772 33.8649 18.8372 34.6479 17.3216 35.4815C16.7406 35.8015 16.1427 36.1298 15.5786 36.4415C15.5365 36.3992 15.5028 36.3571 15.4607 36.315C12.4462 33.0986 6.88024 30.825 7.11614 26.5051C7.20028 24.9305 7.74766 20.7962 17.8185 15.7776C26.0706 11.6684 32.6722 12.7968 33.8091 15.306C35.4425 18.8848 30.2807 25.5454 21.7088 26.5051C18.4416 26.8673 16.724 25.6042 16.2945 25.1328C15.8481 24.636 15.7807 24.6106 15.6124 24.7033C15.3344 24.8548 15.5113 25.2927 15.6124 25.5537C15.865 26.2189 16.9175 27.3978 18.7111 27.9872C20.2856 28.5008 24.117 28.7873 28.7481 26.9936C33.952 24.9894 38.0023 19.4066 36.815 14.7334C35.6025 9.9844 27.7294 8.42651 20.2774 11.0705C15.8398 12.6451 11.0402 15.1208 7.5877 18.3457C3.48696 22.1856 2.83024 25.5284 3.09954 26.9263C4.05954 31.8858 10.8968 35.1194 13.6335 37.5107C13.4988 37.5865 13.3724 37.6539 13.2547 37.7213C11.8822 38.4032 6.66989 41.1314 5.36465 44.0116C3.89126 47.2786 5.60876 49.6193 6.73716 49.9395C10.2569 50.9161 13.8609 49.1563 15.7976 46.268C17.7341 43.3799 17.4985 39.6075 16.606 37.8897C16.5974 37.8645 16.5807 37.8478 16.5724 37.8223C16.9259 37.6119 17.2879 37.4014 17.6501 37.1909C18.3489 36.7783 19.0311 36.3992 19.6288 36.071C19.2919 36.9805 19.0478 38.0747 18.9215 39.658C18.77 41.5104 19.5363 43.9103 20.5299 44.8534C20.9676 45.266 21.4981 45.2746 21.8266 45.2746C22.9886 45.2746 23.5106 44.3145 24.0916 43.1693C24.8074 41.7713 25.4389 40.1461 25.4389 40.1461C25.4389 40.1461 24.6474 44.5419 26.8114 44.5419C27.6029 44.5419 28.3946 43.523 28.748 43.0009V43.0092C28.748 43.0092 28.765 42.9757 28.8071 42.9085C28.8912 42.782 28.9333 42.7062 28.9333 42.7062V42.6808C29.2532 42.1335 29.9522 40.8788 31.0046 38.8075C32.3689 36.1296 33.6739 32.7866 33.6739 32.7866C33.6739 32.7866 33.7918 33.6037 34.1962 34.9593C34.4318 35.7592 34.9286 36.6349 35.3243 37.4855C35.0045 37.9233 34.8107 38.176 34.8107 38.176C34.8107 38.176 34.8107 38.1843 34.8189 38.1927C34.5664 38.5298 34.2802 38.8919 33.9855 39.2455C32.9076 40.5253 31.6277 41.9907 31.4594 42.4116C31.2571 42.9085 31.3077 43.2787 31.6952 43.5652C31.9813 43.7842 32.4866 43.8177 33.017 43.7758C33.9855 43.7082 34.6675 43.4726 34.9959 43.3207C35.5178 43.1358 36.1243 42.8408 36.6968 42.4283C37.7494 41.6539 38.3895 40.5423 38.3303 39.0771C38.2967 38.2688 38.0355 37.4603 37.7156 36.7027C37.8083 36.5678 37.9094 36.4245 38.002 36.2816C39.6694 33.8478 40.9577 31.1788 40.9577 31.1788C40.9577 31.1788 41.0756 31.9954 41.4796 33.3511C41.6818 34.0333 42.0775 34.7827 42.4395 35.5151C40.8733 36.7867 39.9051 38.2605 39.5682 39.2285C38.945 41.0222 39.4334 41.8303 40.3512 42.016C40.7638 42.1001 41.3533 41.9063 41.7912 41.721C42.3385 41.5357 42.9953 41.241 43.61 40.7863C44.6625 40.0118 45.6815 38.9254 45.6142 37.4519C45.5888 36.7866 45.4036 36.1214 45.1594 35.4815C46.4813 34.9259 48.1994 34.6225 50.3886 34.8753C55.0788 35.4225 55.9965 38.3528 55.8196 39.5737C55.643 40.8032 54.6578 41.4769 54.3293 41.6789C54.0008 41.8811 53.8999 41.9569 53.9253 42.1084C53.9672 42.3273 54.1188 42.319 54.3966 42.2683C54.7841 42.201 56.8554 41.2746 56.9479 39.0095C57.0829 36.1465 54.3296 32.9974 49.4541 33.0226ZM13.3052 45.207C11.7559 46.8995 9.58341 47.5395 8.64884 47.0005C7.64676 46.4198 8.04251 43.9272 9.95395 42.1251C11.116 41.0305 12.6148 40.0201 13.6084 39.3971C13.8358 39.2624 14.1643 39.0603 14.5684 38.816C14.6358 38.7742 14.6695 38.7572 14.6695 38.7572C14.7452 38.7065 14.8294 38.6645 14.9137 38.6139C15.6124 41.1737 14.9388 43.4303 13.3052 45.207ZM24.6223 37.5107C24.0834 38.8326 22.9465 42.2009 22.2563 42.0241C21.6668 41.8724 21.3046 39.3042 22.1384 36.7783C22.5593 35.5067 23.4518 33.9911 23.9825 33.4017C24.8328 32.4501 25.7675 32.1469 25.9865 32.5259C26.2811 33.0226 24.959 36.6856 24.6223 37.5107ZM33.9688 41.9738C33.7416 42.0915 33.531 42.1673 33.43 42.1083C33.3543 42.0662 33.5227 41.9062 33.5227 41.9062C33.5227 41.9062 34.6929 40.6515 35.1562 40.0787C35.4256 39.7421 35.7371 39.3462 36.074 38.9085C36.074 38.9503 36.0822 38.9928 36.0822 39.043C36.0741 40.5505 34.6258 41.5696 33.9688 41.9738ZM41.1769 40.3316C41.0085 40.2137 41.0336 39.818 41.5979 38.5885C41.8169 38.1085 42.3222 37.3002 43.1977 36.5255C43.2988 36.8454 43.3577 37.1485 43.3577 37.4348C43.3491 39.3294 41.9936 40.0368 41.1769 40.3316Z" fill="#CF649A"/>
</svg>
