<svg width="50" height="50" viewBox="0 0 50 50" fill="none" xmlns="http://www.w3.org/2000/svg">
<path d="M42.7114 0H7.28863C3.26323 0 0 3.26323 0 7.28863V42.7114C0 46.7368 3.26323 50 7.28863 50H42.7114C46.7368 50 50 46.7368 50 42.7114V7.28863C50 3.26323 46.7368 0 42.7114 0Z" fill="#2D2D2D"/>
<path d="M42.7114 2.18659C44.0645 2.18659 45.3622 2.72412 46.3191 3.68094C47.2759 4.63776 47.8134 5.93548 47.8134 7.28863V42.7114C47.8134 44.0645 47.2759 45.3622 46.3191 46.3191C45.3622 47.2759 44.0645 47.8134 42.7114 47.8134H7.28863C5.93548 47.8134 4.63776 47.2759 3.68094 46.3191C2.72412 45.3622 2.18659 44.0645 2.18659 42.7114V7.28863C2.18659 5.93548 2.72412 4.63776 3.68094 3.68094C4.63776 2.72412 5.93548 2.18659 7.28863 2.18659H42.7114ZM42.7114 0H7.28863C5.35556 0 3.50167 0.767907 2.13479 2.13479C0.767907 3.50167 0 5.35556 0 7.28863V42.7114C0 44.6444 0.767907 46.4983 2.13479 47.8652C3.50167 49.2321 5.35556 50 7.28863 50H42.7114C44.6444 50 46.4983 49.2321 47.8652 47.8652C49.2321 46.4983 50 44.6444 50 42.7114V7.28863C50 5.35556 49.2321 3.50167 47.8652 2.13479C46.4983 0.767907 44.6444 0 42.7114 0Z" fill="#454B57"/>
<path d="M18.7682 43.6951C19.5865 43.6951 20.3969 43.5339 21.153 43.2208C21.909 42.9076 22.596 42.4486 23.1747 41.8699C23.7534 41.2912 24.2124 40.6042 24.5256 39.8481C24.8387 39.0921 24.9999 38.2817 24.9999 37.4633V31.2316H18.7682C17.1154 31.2316 15.5303 31.8881 14.3616 33.0568C13.1929 34.2255 12.5364 35.8106 12.5364 37.4633C12.5364 39.1161 13.1929 40.7012 14.3616 41.8699C15.5303 43.0386 17.1154 43.6951 18.7682 43.6951Z" fill="#0ACF83"/>
<path d="M12.5364 24.9998C12.5364 23.3471 13.1929 21.762 14.3616 20.5933C15.5303 19.4246 17.1154 18.7681 18.7682 18.7681H24.9999V31.2316H18.7682C17.1154 31.2316 15.5303 30.5751 14.3616 29.4064C13.1929 28.2377 12.5364 26.6526 12.5364 24.9998Z" fill="#A259FF"/>
<path d="M12.5364 12.5362C12.5364 10.8835 13.1929 9.29837 14.3616 8.12969C15.5303 6.961 17.1154 6.30444 18.7682 6.30444H24.9999V18.768H18.7682C17.1154 18.768 15.5303 18.1114 14.3616 16.9428C13.1929 15.7741 12.5364 14.189 12.5364 12.5362Z" fill="#F24E1E"/>
<path d="M25 6.34082H31.2318C32.8845 6.34082 34.4696 6.99738 35.6383 8.16607C36.807 9.33475 37.4636 10.9198 37.4636 12.5726C37.4636 14.2254 36.807 15.8104 35.6383 16.9791C34.4696 18.1478 32.8845 18.8044 31.2318 18.8044H25V6.34082Z" fill="#FF7262"/>
<path d="M37.4636 24.9998C37.4636 26.2324 37.0981 27.4372 36.4133 28.462C35.7286 29.4868 34.7553 30.2856 33.6166 30.7573C32.4779 31.2289 31.2249 31.3523 30.016 31.1119C28.8072 30.8714 27.6968 30.2779 26.8253 29.4064C25.9537 28.5348 25.3602 27.4245 25.1197 26.2156C24.8793 25.0068 25.0027 23.7538 25.4744 22.615C25.946 21.4763 26.7448 20.5031 27.7696 19.8183C28.7944 19.1336 29.9993 18.7681 31.2318 18.7681C32.8846 18.7681 34.4696 19.4246 35.6383 20.5933C36.807 21.762 37.4636 23.3471 37.4636 24.9998Z" fill="#1ABCFE"/>
</svg>
