<svg width="50" height="50" viewBox="0 0 50 50" fill="none" xmlns="http://www.w3.org/2000/svg">
<g clip-path="url(#clip0_67_1688)">
<path fill-rule="evenodd" clip-rule="evenodd" d="M0 0H50V50H0V0ZM38.2223 41.9158C35.9048 41.9158 34.5944 40.7071 33.5873 39.0627L29.769 41.281C31.1483 44.0062 33.9675 46.0856 38.331 46.0856C42.7935 46.0856 46.1167 43.7683 46.1167 39.5381C46.1167 35.6144 43.8627 33.869 39.8706 32.1571L38.696 31.654C36.6802 30.781 35.8071 30.2104 35.8071 28.8008C35.8071 27.6604 36.6794 26.7873 38.0556 26.7873C39.4048 26.7873 40.2737 27.3562 41.0794 28.8008L44.7381 26.4517C43.1904 23.7294 41.0429 22.6896 38.0556 22.6896C33.8596 22.6896 31.1746 25.3723 31.1746 28.896C31.1746 32.7215 33.4269 34.531 36.8175 35.9754L37.9921 36.4794C40.135 37.4167 41.4127 37.9873 41.4127 39.5983C41.4127 40.9429 40.169 41.9158 38.2223 41.9158ZM20.0135 41.8865C18.3992 41.8865 17.7278 40.7794 16.9897 39.4698L13.1651 41.7854C14.273 44.1302 16.4516 46.0771 20.2135 46.0771C24.3769 46.0771 27.2294 43.8627 27.2294 38.9977V22.9579H22.531V38.9342C22.531 41.2825 21.5571 41.8865 20.0135 41.8865Z" fill="#FCE40E" fill-opacity="0.85"/>
</g>
<defs>
<clipPath id="clip0_67_1688">
<rect width="50" height="50" rx="5" fill="white"/>
</clipPath>
</defs>
</svg>
