<svg width="50" height="50" viewBox="0 0 50 50" fill="none" xmlns="http://www.w3.org/2000/svg">
<g clip-path="url(#clip0_67_1709)">
<path d="M3.39844 0.185547C1.85547 0.683594 0.664062 1.875 0.195312 3.39844C0 4.01367 0 4.35547 0 25C0 45.5762 0 45.9863 0.195312 46.5918C0.664062 48.125 1.875 49.3359 3.39844 49.8047C4.01367 50 4.35547 50 25 50C45.5762 50 45.9863 50 46.5918 49.8047C48.125 49.3359 49.3359 48.125 49.8047 46.6016C50 45.9863 50 45.6445 50 25C50 4.35547 50 4.01367 49.8047 3.39844C49.3359 1.875 48.125 0.664062 46.5918 0.195312C45.9863 0 45.5762 0 24.9609 0.00976562C4.91211 0.00976562 3.92578 0.0195312 3.39844 0.185547ZM42.4316 23.4961C42.9688 23.584 43.75 23.7598 44.1699 23.8867L44.9219 24.1309V26.3281C44.9219 27.5391 44.8926 28.5156 44.8535 28.4961C44.8047 28.4766 44.4629 28.3008 44.0723 28.0957C42.7344 27.4121 40.5957 26.9629 39.209 27.0898C36.9043 27.3047 35.7812 28.2812 36.0742 29.8438C36.1621 30.2637 36.8066 31.0059 37.5 31.4453C37.7539 31.6113 38.8672 32.1582 39.9707 32.6562C42.8027 33.9453 43.8086 34.6094 44.6875 35.7715C45.5176 36.875 45.8008 37.793 45.8008 39.4043C45.8008 41.2598 45.3516 42.4512 44.1992 43.6035C42.6758 45.1172 40.4297 45.8301 37.1582 45.8203C34.9121 45.8203 32.8516 45.459 31.4258 44.8242L30.957 44.6191V42.2754C30.957 40.4199 30.9863 39.9414 31.084 40C31.1426 40.0488 31.4062 40.2246 31.6504 40.4004C32.3438 40.8984 33.8379 41.5625 34.8145 41.8066C36.0547 42.1191 37.9395 42.1289 38.916 41.8262C40.9082 41.2012 41.3477 39.4043 39.834 38.0469C39.3164 37.5781 38.1934 36.9727 36.6699 36.3281C34.5508 35.4297 33.5156 34.8047 32.5684 33.8477C30.4688 31.7188 30.3418 28.1055 32.2754 25.8984C33.6133 24.3848 35.5176 23.6133 38.623 23.3008C39.3164 23.2324 41.4258 23.3398 42.4316 23.4961ZM29.0039 25.7324V27.7344H25.8301H22.6562V36.6699V45.6055H20.2148H17.7734V36.6699V27.7344H14.6484H11.5234V25.7324V23.7305H20.2637H29.0039V25.7324Z" fill="#35A0EE"/>
</g>
<defs>
<clipPath id="clip0_67_1709">
<rect width="50" height="50" fill="white"/>
</clipPath>
</defs>
</svg>
